<?xml version="1.0" encoding="UTF-8"?>
<!-- Generated by Pixelmator Pro 3.6.18 -->
<svg width="1000" height="1000" viewBox="0 0 1000 1000" xmlns="http://www.w3.org/2000/svg">
    <clipPath id="clipPath1">
        <path clip-rule="evenodd" d="M 0 1000 L 1000 1000 L 1000 0 L 0 0 Z"/>
    </clipPath>
    <g id="Group" clip-path="url(#clipPath1)">
        <linearGradient id="linearGradient1" x1="506.177332" y1="866.644949" x2="494.997668" y2="132.355051" gradientUnits="userSpaceOnUse">
            <stop offset="0" stop-color="#008dff" stop-opacity="1"/>
            <stop offset="1" stop-color="#00ffba" stop-opacity="1"/>
        </linearGradient>
        <path id="Circle" fill="url(#linearGradient1)" fill-rule="evenodd" stroke="none" d="M 867.775024 499.5 C 867.775024 296.707947 703.379578 132.3125 500.587494 132.3125 C 297.795441 132.3125 133.399994 296.707947 133.399994 499.5 C 133.399994 702.292053 297.795441 866.6875 500.587494 866.6875 C 703.379578 866.6875 867.775024 702.292053 867.775024 499.5 Z"/>
        <g id="Group-copy">
            <path id="Path" fill="none" stroke="#000000" stroke-width="30.361227" stroke-linecap="round" stroke-linejoin="round" d="M 30 406.087524 C 30 406.087524 91.886909 406.087524 122.83036 406.087524 C 137.386353 406.087524 166.498337 406.087524 166.498337 406.087524 L 270.875 406.087524"/>
            <path id="path1" fill="none" stroke="#000000" stroke-width="30.361227" stroke-linecap="round" stroke-linejoin="round" d="M 30 500.087494 L 235.625 500.087494"/>
            <path id="path2" fill="none" stroke="#000000" stroke-width="30.361227" stroke-linecap="round" stroke-linejoin="round" d="M 30 594.087524 L 188.625 594.087524"/>
        </g>
        <g id="g1">
            <path id="path3" fill="none" stroke="#000000" stroke-width="30.361227" stroke-linecap="round" stroke-linejoin="round" d="M 970 407.262512 L 764.375 407.262512"/>
            <path id="path4" fill="none" stroke="#000000" stroke-width="30.361227" stroke-linecap="round" stroke-linejoin="round" d="M 970 498.912506 L 764.375 498.912506"/>
            <path id="path5" fill="none" stroke="#000000" stroke-width="30.361227" stroke-linecap="round" stroke-linejoin="round" d="M 970 594.087524 L 764.375 594.087524"/>
        </g>
        <g id="g2">
            <path id="Rounded-Rectangle-copy-2" fill="#000000" fill-rule="evenodd" stroke="none" d="M 391.070587 652.734985 C 391.070587 665.336426 401.286041 675.55188 413.887482 675.55188 C 426.488892 675.55188 436.704376 665.336426 436.704376 652.734985 L 436.704376 367.28479 C 436.704376 354.68335 426.488892 344.467896 413.887482 344.467896 C 401.286041 344.467896 391.070587 354.68335 391.070587 367.28479 Z"/>
            <path id="Rounded-Rectangle-copy" fill="#000000" fill-rule="evenodd" stroke="none" d="M 392.438049 371.078979 C 398.068695 392.092957 419.668427 404.563538 440.682373 398.932861 L 635.556213 346.716614 C 656.570129 341.085938 669.04071 319.486206 663.410034 298.472229 C 657.779419 277.458313 636.179688 264.987732 615.16571 270.618408 L 420.291901 322.834656 C 399.277985 328.465332 386.807373 350.065063 392.438049 371.078979 Z"/>
            <path id="Rounded-Rectangle" fill="#000000" fill-rule="evenodd" stroke="none" d="M 619.239563 618.509644 C 619.239563 631.111084 629.455017 641.326538 642.056458 641.326538 C 654.657837 641.326538 664.873352 631.111084 664.873352 618.509644 L 664.873352 313.388977 C 664.873352 300.787537 654.657837 290.572083 642.056458 290.572083 C 629.455017 290.572083 619.239563 300.787537 619.239563 313.388977 Z"/>
            <path id="path6" fill="#000000" fill-rule="evenodd" stroke="none" d="M 436.221283 650.533447 C 429.671326 619.718262 393.135803 601.374878 354.616882 609.562378 C 316.097961 617.749817 290.182007 649.367676 296.731964 680.182739 C 303.281921 710.997925 339.817474 729.341309 378.336365 721.153809 C 416.855286 712.96637 442.77124 681.348511 436.221283 650.533447 Z"/>
            <path id="Circle-copy" fill="#000000" fill-rule="evenodd" stroke="none" d="M 664.390259 616.308044 C 657.840271 585.49292 621.304749 567.149536 582.785828 575.337036 C 544.266907 583.524475 518.350952 615.142334 524.90094 645.957397 C 531.450867 676.772583 567.98645 695.115967 606.50531 686.928467 C 645.024231 678.741028 670.940186 647.123169 664.390259 616.308044 Z"/>
        </g>
    </g>
</svg>
